<svg xmlns="http://www.w3.org/2000/svg" xmlns:xlink="http://www.w3.org/1999/xlink" width="1366" height="447" viewBox="0 0 1366 447">
  <defs>
    <clipPath id="clip-path">
      <rect id="Mask" width="1366" height="447" transform="translate(0 1830)" fill="#fff"/>
    </clipPath>
    <linearGradient id="linear-gradient" x1="1.067" y1="1.083" x2="0.149" y2="0.14" gradientUnits="objectBoundingBox">
      <stop offset="0" stop-color="#b79923"/>
      <stop offset="0.5" stop-color="#f2c536"/>
      <stop offset="1" stop-color="#8a6e02"/>
    </linearGradient>
    <linearGradient id="linear-gradient-3" x1="-0.067" y1="1.083" x2="0.851" y2="0.14" xlink:href="#linear-gradient"/>
    <linearGradient id="linear-gradient-129" x1="0.5" x2="0.5" y2="1" gradientUnits="objectBoundingBox">
      <stop offset="0" stop-color="#fff"/>
      <stop offset="1" stop-color="#fff" stop-opacity="0"/>
    </linearGradient>
  </defs>
  <g id="Pattern" transform="translate(0 -1890)" opacity="0.1">
    <g id="Pattern-2" data-name="Pattern" transform="translate(0 60)" clip-path="url(#clip-path)">
      <g id="Row1">
        <g id="_1" data-name="1" transform="translate(-1473 1014)">
          <path id="Path_10" data-name="Path 10" d="M27.685,50.125h52.57V15.27c0-9.432-3.711-12.715-9.571-12.715V1.84H104.11v.714c-5.861,0-9.571,3.284-9.571,12.715V88.41c0,9.432,3.711,12.715,9.571,12.715v.714H70.683v-.714c5.861,0,9.571-3.284,9.571-12.715V51.84H27.685V88.41c0,9.432,3.711,12.715,9.571,12.715v.714H3.83v-.714c5.861,0,9.571-3.284,9.571-12.715V15.27C13.4,5.838,9.691,2.554,3.83,2.554V1.84H37.257v.714c-5.861,0-9.571,3.284-9.571,12.715Z" transform="translate(1081.17 861.16)" fill="url(#linear-gradient)"/>
          <path id="Path_11" data-name="Path 11" d="M145.584,43.837,173.01,80.267c12.428,16.426,20.711,20.858,25.283,20.858v.714c-20,0-28.287-.714-37.572-13.142L134.01,52.841,163.151,24.7c10-9.571,4.712-21.713-8.717-22.147V1.84h34.428v.714Z" transform="translate(1046.837 861.16)" fill="url(#linear-gradient)"/>
        </g>
        <g id="_1-2" data-name="1" transform="translate(-227.869 1877)">
          <path id="Path_10-2" data-name="Path 10" d="M80.255,50.125H27.685V15.27c0-9.432,3.711-12.715,9.571-12.715V1.84H3.83v.714c5.861,0,9.571,3.284,9.571,12.715V88.41c0,9.432-3.711,12.715-9.571,12.715v.714H37.257v-.714c-5.861,0-9.571-3.284-9.571-12.715V51.84h52.57V88.41c0,9.432-3.711,12.715-9.572,12.715v.714H104.11v-.714c-5.861,0-9.571-3.284-9.571-12.715V15.27c0-9.432,3.711-12.715,9.571-12.715V1.84H70.683v.714c5.861,0,9.571,3.284,9.571,12.715Z" transform="translate(56.021 -1.84)" fill="url(#linear-gradient-3)"/>
          <path id="Path_11-2" data-name="Path 11" d="M186.719,43.837,159.293,80.267c-12.428,16.426-20.711,20.858-25.283,20.858v.714c20,0,28.287-.714,37.572-13.142l26.712-35.856L169.152,24.7c-10-9.571-4.712-21.713,8.717-22.147V1.84H143.442v.714Z" transform="translate(-134.01 -1.84)" fill="url(#linear-gradient-3)"/>
        </g>
        <g id="_1-3" data-name="1" transform="translate(-1152.738 1014)">
          <path id="Path_10-3" data-name="Path 10" d="M27.685,50.125h52.57V15.27c0-9.432-3.711-12.715-9.571-12.715V1.84H104.11v.714c-5.861,0-9.571,3.284-9.571,12.715V88.41c0,9.432,3.711,12.715,9.571,12.715v.714H70.683v-.714c5.861,0,9.571-3.284,9.571-12.715V51.84H27.685V88.41c0,9.432,3.711,12.715,9.571,12.715v.714H3.83v-.714c5.861,0,9.571-3.284,9.571-12.715V15.27C13.4,5.838,9.691,2.554,3.83,2.554V1.84H37.257v.714c-5.861,0-9.571,3.284-9.571,12.715Z" transform="translate(1081.17 861.16)" fill="url(#linear-gradient)"/>
          <path id="Path_11-3" data-name="Path 11" d="M145.584,43.837,173.01,80.267c12.428,16.426,20.711,20.858,25.283,20.858v.714c-20,0-28.287-.714-37.572-13.142L134.01,52.841,163.151,24.7c10-9.571,4.712-21.713-8.717-22.147V1.84h34.428v.714Z" transform="translate(1046.837 861.16)" fill="url(#linear-gradient)"/>
        </g>
        <g id="_1-4" data-name="1" transform="translate(92.393 1877)">
          <path id="Path_10-4" data-name="Path 10" d="M80.255,50.125H27.685V15.27c0-9.432,3.711-12.715,9.571-12.715V1.84H3.83v.714c5.861,0,9.571,3.284,9.571,12.715V88.41c0,9.432-3.711,12.715-9.571,12.715v.714H37.257v-.714c-5.861,0-9.571-3.284-9.571-12.715V51.84h52.57V88.41c0,9.432-3.711,12.715-9.572,12.715v.714H104.11v-.714c-5.861,0-9.571-3.284-9.571-12.715V15.27c0-9.432,3.711-12.715,9.571-12.715V1.84H70.683v.714c5.861,0,9.571,3.284,9.571,12.715Z" transform="translate(56.021 -1.84)" fill="url(#linear-gradient-3)"/>
          <path id="Path_11-4" data-name="Path 11" d="M186.719,43.837,159.293,80.267c-12.428,16.426-20.711,20.858-25.283,20.858v.714c20,0,28.287-.714,37.572-13.142l26.712-35.856L169.152,24.7c-10-9.571-4.712-21.713,8.717-22.147V1.84H143.442v.714Z" transform="translate(-134.01 -1.84)" fill="url(#linear-gradient-3)"/>
        </g>
        <g id="_1-5" data-name="1" transform="translate(-832.476 1014)">
          <path id="Path_10-5" data-name="Path 10" d="M27.685,50.125h52.57V15.27c0-9.432-3.711-12.715-9.571-12.715V1.84H104.11v.714c-5.861,0-9.571,3.284-9.571,12.715V88.41c0,9.432,3.711,12.715,9.571,12.715v.714H70.683v-.714c5.861,0,9.571-3.284,9.571-12.715V51.84H27.685V88.41c0,9.432,3.711,12.715,9.571,12.715v.714H3.83v-.714c5.861,0,9.571-3.284,9.571-12.715V15.27C13.4,5.838,9.691,2.554,3.83,2.554V1.84H37.257v.714c-5.861,0-9.571,3.284-9.571,12.715Z" transform="translate(1081.17 861.16)" fill="url(#linear-gradient)"/>
          <path id="Path_11-5" data-name="Path 11" d="M145.584,43.837,173.01,80.267c12.428,16.426,20.711,20.858,25.283,20.858v.714c-20,0-28.287-.714-37.572-13.142L134.01,52.841,163.151,24.7c10-9.571,4.712-21.713-8.717-22.147V1.84h34.428v.714Z" transform="translate(1046.837 861.16)" fill="url(#linear-gradient)"/>
        </g>
        <g id="_1-6" data-name="1" transform="translate(412.655 1877)">
          <path id="Path_10-6" data-name="Path 10" d="M80.255,50.125H27.685V15.27c0-9.432,3.711-12.715,9.571-12.715V1.84H3.83v.714c5.861,0,9.571,3.284,9.571,12.715V88.41c0,9.432-3.711,12.715-9.571,12.715v.714H37.257v-.714c-5.861,0-9.571-3.284-9.571-12.715V51.84h52.57V88.41c0,9.432-3.711,12.715-9.572,12.715v.714H104.11v-.714c-5.861,0-9.571-3.284-9.571-12.715V15.27c0-9.432,3.711-12.715,9.571-12.715V1.84H70.683v.714c5.861,0,9.571,3.284,9.571,12.715Z" transform="translate(56.021 -1.84)" fill="url(#linear-gradient-3)"/>
          <path id="Path_11-6" data-name="Path 11" d="M186.719,43.837,159.293,80.267c-12.428,16.426-20.711,20.858-25.283,20.858v.714c20,0,28.287-.714,37.572-13.142l26.712-35.856L169.152,24.7c-10-9.571-4.712-21.713,8.717-22.147V1.84H143.442v.714Z" transform="translate(-134.01 -1.84)" fill="url(#linear-gradient-3)"/>
        </g>
        <g id="_1-7" data-name="1" transform="translate(-512.214 1014)">
          <path id="Path_10-7" data-name="Path 10" d="M27.685,50.125h52.57V15.27c0-9.432-3.711-12.715-9.571-12.715V1.84H104.11v.714c-5.861,0-9.571,3.284-9.571,12.715V88.41c0,9.432,3.711,12.715,9.571,12.715v.714H70.683v-.714c5.861,0,9.571-3.284,9.571-12.715V51.84H27.685V88.41c0,9.432,3.711,12.715,9.571,12.715v.714H3.83v-.714c5.861,0,9.571-3.284,9.571-12.715V15.27C13.4,5.838,9.691,2.554,3.83,2.554V1.84H37.257v.714c-5.861,0-9.571,3.284-9.571,12.715Z" transform="translate(1081.17 861.16)" fill="url(#linear-gradient)"/>
          <path id="Path_11-7" data-name="Path 11" d="M145.584,43.837,173.01,80.267c12.428,16.426,20.711,20.858,25.283,20.858v.714c-20,0-28.287-.714-37.572-13.142L134.01,52.841,163.151,24.7c10-9.571,4.712-21.713-8.717-22.147V1.84h34.428v.714Z" transform="translate(1046.837 861.16)" fill="url(#linear-gradient)"/>
        </g>
        <g id="_1-8" data-name="1" transform="translate(732.917 1877)">
          <path id="Path_10-8" data-name="Path 10" d="M80.255,50.125H27.685V15.27c0-9.432,3.711-12.715,9.571-12.715V1.84H3.83v.714c5.861,0,9.571,3.284,9.571,12.715V88.41c0,9.432-3.711,12.715-9.571,12.715v.714H37.257v-.714c-5.861,0-9.571-3.284-9.571-12.715V51.84h52.57V88.41c0,9.432-3.711,12.715-9.572,12.715v.714H104.11v-.714c-5.861,0-9.571-3.284-9.571-12.715V15.27c0-9.432,3.711-12.715,9.571-12.715V1.84H70.683v.714c5.861,0,9.571,3.284,9.571,12.715Z" transform="translate(56.021 -1.84)" fill="url(#linear-gradient-3)"/>
          <path id="Path_11-8" data-name="Path 11" d="M186.719,43.837,159.293,80.267c-12.428,16.426-20.711,20.858-25.283,20.858v.714c20,0,28.287-.714,37.572-13.142l26.712-35.856L169.152,24.7c-10-9.571-4.712-21.713,8.717-22.147V1.84H143.442v.714Z" transform="translate(-134.01 -1.84)" fill="url(#linear-gradient-3)"/>
        </g>
        <g id="_1-9" data-name="1" transform="translate(-191.951 1014)">
          <path id="Path_10-9" data-name="Path 10" d="M27.685,50.125h52.57V15.27c0-9.432-3.711-12.715-9.571-12.715V1.84H104.11v.714c-5.861,0-9.571,3.284-9.571,12.715V88.41c0,9.432,3.711,12.715,9.571,12.715v.714H70.683v-.714c5.861,0,9.571-3.284,9.571-12.715V51.84H27.685V88.41c0,9.432,3.711,12.715,9.571,12.715v.714H3.83v-.714c5.861,0,9.571-3.284,9.571-12.715V15.27C13.4,5.838,9.691,2.554,3.83,2.554V1.84H37.257v.714c-5.861,0-9.571,3.284-9.571,12.715Z" transform="translate(1081.17 861.16)" fill="url(#linear-gradient)"/>
          <path id="Path_11-9" data-name="Path 11" d="M145.584,43.837,173.01,80.267c12.428,16.426,20.711,20.858,25.283,20.858v.714c-20,0-28.287-.714-37.572-13.142L134.01,52.841,163.151,24.7c10-9.571,4.712-21.713-8.717-22.147V1.84h34.428v.714Z" transform="translate(1046.837 861.16)" fill="url(#linear-gradient)"/>
        </g>
        <g id="_1-10" data-name="1" transform="translate(1053.18 1877)">
          <path id="Path_10-10" data-name="Path 10" d="M80.255,50.125H27.685V15.27c0-9.432,3.711-12.715,9.571-12.715V1.84H3.83v.714c5.861,0,9.571,3.284,9.571,12.715V88.41c0,9.432-3.711,12.715-9.571,12.715v.714H37.257v-.714c-5.861,0-9.571-3.284-9.571-12.715V51.84h52.57V88.41c0,9.432-3.711,12.715-9.572,12.715v.714H104.11v-.714c-5.861,0-9.571-3.284-9.571-12.715V15.27c0-9.432,3.711-12.715,9.571-12.715V1.84H70.683v.714c5.861,0,9.571,3.284,9.571,12.715Z" transform="translate(56.021 -1.84)" fill="url(#linear-gradient-3)"/>
          <path id="Path_11-10" data-name="Path 11" d="M186.719,43.837,159.293,80.267c-12.428,16.426-20.711,20.858-25.283,20.858v.714c20,0,28.287-.714,37.572-13.142l26.712-35.856L169.152,24.7c-10-9.571-4.712-21.713,8.717-22.147V1.84H143.442v.714Z" transform="translate(-134.01 -1.84)" fill="url(#linear-gradient-3)"/>
        </g>
        <g id="_1-11" data-name="1" transform="translate(128.311 1014)">
          <path id="Path_10-11" data-name="Path 10" d="M27.685,50.125h52.57V15.27c0-9.432-3.711-12.715-9.571-12.715V1.84H104.11v.714c-5.861,0-9.571,3.284-9.571,12.715V88.41c0,9.432,3.711,12.715,9.571,12.715v.714H70.683v-.714c5.861,0,9.571-3.284,9.571-12.715V51.84H27.685V88.41c0,9.432,3.711,12.715,9.571,12.715v.714H3.83v-.714c5.861,0,9.571-3.284,9.571-12.715V15.27C13.4,5.838,9.691,2.554,3.83,2.554V1.84H37.257v.714c-5.861,0-9.571,3.284-9.571,12.715Z" transform="translate(1081.17 861.16)" fill="url(#linear-gradient)"/>
          <path id="Path_11-11" data-name="Path 11" d="M145.584,43.837,173.01,80.267c12.428,16.426,20.711,20.858,25.283,20.858v.714c-20,0-28.287-.714-37.572-13.142L134.01,52.841,163.151,24.7c10-9.571,4.712-21.713-8.717-22.147V1.84h34.428v.714Z" transform="translate(1046.837 861.16)" fill="url(#linear-gradient)"/>
        </g>
        <g id="_1-12" data-name="1" transform="translate(1373.442 1877)">
          <path id="Path_10-12" data-name="Path 10" d="M80.255,50.125H27.685V15.27c0-9.432,3.711-12.715,9.571-12.715V1.84H3.83v.714c5.861,0,9.571,3.284,9.571,12.715V88.41c0,9.432-3.711,12.715-9.571,12.715v.714H37.257v-.714c-5.861,0-9.571-3.284-9.571-12.715V51.84h52.57V88.41c0,9.432-3.711,12.715-9.572,12.715v.714H104.11v-.714c-5.861,0-9.571-3.284-9.571-12.715V15.27c0-9.432,3.711-12.715,9.571-12.715V1.84H70.683v.714c5.861,0,9.571,3.284,9.571,12.715Z" transform="translate(56.021 -1.84)" fill="url(#linear-gradient-3)"/>
          <path id="Path_11-12" data-name="Path 11" d="M186.719,43.837,159.293,80.267c-12.428,16.426-20.711,20.858-25.283,20.858v.714c20,0,28.287-.714,37.572-13.142l26.712-35.856L169.152,24.7c-10-9.571-4.712-21.713,8.717-22.147V1.84H143.442v.714Z" transform="translate(-134.01 -1.84)" fill="url(#linear-gradient-3)"/>
        </g>
        <g id="_1-13" data-name="1" transform="translate(448.573 1014)">
          <path id="Path_10-13" data-name="Path 10" d="M27.685,50.125h52.57V15.27c0-9.432-3.711-12.715-9.571-12.715V1.84H104.11v.714c-5.861,0-9.571,3.284-9.571,12.715V88.41c0,9.432,3.711,12.715,9.571,12.715v.714H70.683v-.714c5.861,0,9.571-3.284,9.571-12.715V51.84H27.685V88.41c0,9.432,3.711,12.715,9.571,12.715v.714H3.83v-.714c5.861,0,9.571-3.284,9.571-12.715V15.27C13.4,5.838,9.691,2.554,3.83,2.554V1.84H37.257v.714c-5.861,0-9.571,3.284-9.571,12.715Z" transform="translate(1081.17 861.16)" fill="url(#linear-gradient)"/>
          <path id="Path_11-13" data-name="Path 11" d="M145.584,43.837,173.01,80.267c12.428,16.426,20.711,20.858,25.283,20.858v.714c-20,0-28.287-.714-37.572-13.142L134.01,52.841,163.151,24.7c10-9.571,4.712-21.713-8.717-22.147V1.84h34.428v.714Z" transform="translate(1046.837 861.16)" fill="url(#linear-gradient)"/>
        </g>
        <g id="_1-14" data-name="1" transform="translate(1693.704 1877)">
          <path id="Path_10-14" data-name="Path 10" d="M80.255,50.125H27.685V15.27c0-9.432,3.711-12.715,9.571-12.715V1.84H3.83v.714c5.861,0,9.571,3.284,9.571,12.715V88.41c0,9.432-3.711,12.715-9.571,12.715v.714H37.257v-.714c-5.861,0-9.571-3.284-9.571-12.715V51.84h52.57V88.41c0,9.432-3.711,12.715-9.572,12.715v.714H104.11v-.714c-5.861,0-9.571-3.284-9.571-12.715V15.27c0-9.432,3.711-12.715,9.571-12.715V1.84H70.683v.714c5.861,0,9.571,3.284,9.571,12.715Z" transform="translate(56.021 -1.84)" fill="url(#linear-gradient-3)"/>
          <path id="Path_11-14" data-name="Path 11" d="M186.719,43.837,159.293,80.267c-12.428,16.426-20.711,20.858-25.283,20.858v.714c20,0,28.287-.714,37.572-13.142l26.712-35.856L169.152,24.7c-10-9.571-4.712-21.713,8.717-22.147V1.84H143.442v.714Z" transform="translate(-134.01 -1.84)" fill="url(#linear-gradient-3)"/>
        </g>
        <g id="_1-15" data-name="1" transform="translate(768.835 1014)">
          <path id="Path_10-15" data-name="Path 10" d="M27.685,50.125h52.57V15.27c0-9.432-3.711-12.715-9.571-12.715V1.84H104.11v.714c-5.861,0-9.571,3.284-9.571,12.715V88.41c0,9.432,3.711,12.715,9.571,12.715v.714H70.683v-.714c5.861,0,9.571-3.284,9.571-12.715V51.84H27.685V88.41c0,9.432,3.711,12.715,9.571,12.715v.714H3.83v-.714c5.861,0,9.571-3.284,9.571-12.715V15.27C13.4,5.838,9.691,2.554,3.83,2.554V1.84H37.257v.714c-5.861,0-9.571,3.284-9.571,12.715Z" transform="translate(1081.17 861.16)" fill="url(#linear-gradient)"/>
          <path id="Path_11-15" data-name="Path 11" d="M145.584,43.837,173.01,80.267c12.428,16.426,20.711,20.858,25.283,20.858v.714c-20,0-28.287-.714-37.572-13.142L134.01,52.841,163.151,24.7c10-9.571,4.712-21.713-8.717-22.147V1.84h34.428v.714Z" transform="translate(1046.837 861.16)" fill="url(#linear-gradient)"/>
        </g>
        <g id="_1-16" data-name="1" transform="translate(2013.966 1877)">
          <path id="Path_10-16" data-name="Path 10" d="M80.255,50.125H27.685V15.27c0-9.432,3.711-12.715,9.571-12.715V1.84H3.83v.714c5.861,0,9.571,3.284,9.571,12.715V88.41c0,9.432-3.711,12.715-9.571,12.715v.714H37.257v-.714c-5.861,0-9.571-3.284-9.571-12.715V51.84h52.57V88.41c0,9.432-3.711,12.715-9.572,12.715v.714H104.11v-.714c-5.861,0-9.571-3.284-9.571-12.715V15.27c0-9.432,3.711-12.715,9.571-12.715V1.84H70.683v.714c5.861,0,9.571,3.284,9.571,12.715Z" transform="translate(56.021 -1.84)" fill="url(#linear-gradient-3)"/>
          <path id="Path_11-16" data-name="Path 11" d="M186.719,43.837,159.293,80.267c-12.428,16.426-20.711,20.858-25.283,20.858v.714c20,0,28.287-.714,37.572-13.142l26.712-35.856L169.152,24.7c-10-9.571-4.712-21.713,8.717-22.147V1.84H143.442v.714Z" transform="translate(-134.01 -1.84)" fill="url(#linear-gradient-3)"/>
        </g>
      </g>
      <g id="Row2" transform="translate(-156 100)">
        <g id="_1-17" data-name="1" transform="translate(-1473 1014)">
          <path id="Path_10-17" data-name="Path 10" d="M27.685,50.125h52.57V15.27c0-9.432-3.711-12.715-9.571-12.715V1.84H104.11v.714c-5.861,0-9.571,3.284-9.571,12.715V88.41c0,9.432,3.711,12.715,9.571,12.715v.714H70.683v-.714c5.861,0,9.571-3.284,9.571-12.715V51.84H27.685V88.41c0,9.432,3.711,12.715,9.571,12.715v.714H3.83v-.714c5.861,0,9.571-3.284,9.571-12.715V15.27C13.4,5.838,9.691,2.554,3.83,2.554V1.84H37.257v.714c-5.861,0-9.571,3.284-9.571,12.715Z" transform="translate(1081.17 861.16)" fill="url(#linear-gradient)"/>
          <path id="Path_11-17" data-name="Path 11" d="M145.584,43.837,173.01,80.267c12.428,16.426,20.711,20.858,25.283,20.858v.714c-20,0-28.287-.714-37.572-13.142L134.01,52.841,163.151,24.7c10-9.571,4.712-21.713-8.717-22.147V1.84h34.428v.714Z" transform="translate(1046.837 861.16)" fill="url(#linear-gradient)"/>
        </g>
        <g id="_1-18" data-name="1" transform="translate(-227.869 1877)">
          <path id="Path_10-18" data-name="Path 10" d="M80.255,50.125H27.685V15.27c0-9.432,3.711-12.715,9.571-12.715V1.84H3.83v.714c5.861,0,9.571,3.284,9.571,12.715V88.41c0,9.432-3.711,12.715-9.571,12.715v.714H37.257v-.714c-5.861,0-9.571-3.284-9.571-12.715V51.84h52.57V88.41c0,9.432-3.711,12.715-9.572,12.715v.714H104.11v-.714c-5.861,0-9.571-3.284-9.571-12.715V15.27c0-9.432,3.711-12.715,9.571-12.715V1.84H70.683v.714c5.861,0,9.571,3.284,9.571,12.715Z" transform="translate(56.021 -1.84)" fill="url(#linear-gradient-3)"/>
          <path id="Path_11-18" data-name="Path 11" d="M186.719,43.837,159.293,80.267c-12.428,16.426-20.711,20.858-25.283,20.858v.714c20,0,28.287-.714,37.572-13.142l26.712-35.856L169.152,24.7c-10-9.571-4.712-21.713,8.717-22.147V1.84H143.442v.714Z" transform="translate(-134.01 -1.84)" fill="url(#linear-gradient-3)"/>
        </g>
        <g id="_1-19" data-name="1" transform="translate(-1152.738 1014)">
          <path id="Path_10-19" data-name="Path 10" d="M27.685,50.125h52.57V15.27c0-9.432-3.711-12.715-9.571-12.715V1.84H104.11v.714c-5.861,0-9.571,3.284-9.571,12.715V88.41c0,9.432,3.711,12.715,9.571,12.715v.714H70.683v-.714c5.861,0,9.571-3.284,9.571-12.715V51.84H27.685V88.41c0,9.432,3.711,12.715,9.571,12.715v.714H3.83v-.714c5.861,0,9.571-3.284,9.571-12.715V15.27C13.4,5.838,9.691,2.554,3.83,2.554V1.84H37.257v.714c-5.861,0-9.571,3.284-9.571,12.715Z" transform="translate(1081.17 861.16)" fill="url(#linear-gradient)"/>
          <path id="Path_11-19" data-name="Path 11" d="M145.584,43.837,173.01,80.267c12.428,16.426,20.711,20.858,25.283,20.858v.714c-20,0-28.287-.714-37.572-13.142L134.01,52.841,163.151,24.7c10-9.571,4.712-21.713-8.717-22.147V1.84h34.428v.714Z" transform="translate(1046.837 861.16)" fill="url(#linear-gradient)"/>
        </g>
        <g id="_1-20" data-name="1" transform="translate(92.393 1877)">
          <path id="Path_10-20" data-name="Path 10" d="M80.255,50.125H27.685V15.27c0-9.432,3.711-12.715,9.571-12.715V1.84H3.83v.714c5.861,0,9.571,3.284,9.571,12.715V88.41c0,9.432-3.711,12.715-9.571,12.715v.714H37.257v-.714c-5.861,0-9.571-3.284-9.571-12.715V51.84h52.57V88.41c0,9.432-3.711,12.715-9.572,12.715v.714H104.11v-.714c-5.861,0-9.571-3.284-9.571-12.715V15.27c0-9.432,3.711-12.715,9.571-12.715V1.84H70.683v.714c5.861,0,9.571,3.284,9.571,12.715Z" transform="translate(56.021 -1.84)" fill="url(#linear-gradient-3)"/>
          <path id="Path_11-20" data-name="Path 11" d="M186.719,43.837,159.293,80.267c-12.428,16.426-20.711,20.858-25.283,20.858v.714c20,0,28.287-.714,37.572-13.142l26.712-35.856L169.152,24.7c-10-9.571-4.712-21.713,8.717-22.147V1.84H143.442v.714Z" transform="translate(-134.01 -1.84)" fill="url(#linear-gradient-3)"/>
        </g>
        <g id="_1-21" data-name="1" transform="translate(-832.476 1014)">
          <path id="Path_10-21" data-name="Path 10" d="M27.685,50.125h52.57V15.27c0-9.432-3.711-12.715-9.571-12.715V1.84H104.11v.714c-5.861,0-9.571,3.284-9.571,12.715V88.41c0,9.432,3.711,12.715,9.571,12.715v.714H70.683v-.714c5.861,0,9.571-3.284,9.571-12.715V51.84H27.685V88.41c0,9.432,3.711,12.715,9.571,12.715v.714H3.83v-.714c5.861,0,9.571-3.284,9.571-12.715V15.27C13.4,5.838,9.691,2.554,3.83,2.554V1.84H37.257v.714c-5.861,0-9.571,3.284-9.571,12.715Z" transform="translate(1081.17 861.16)" fill="url(#linear-gradient)"/>
          <path id="Path_11-21" data-name="Path 11" d="M145.584,43.837,173.01,80.267c12.428,16.426,20.711,20.858,25.283,20.858v.714c-20,0-28.287-.714-37.572-13.142L134.01,52.841,163.151,24.7c10-9.571,4.712-21.713-8.717-22.147V1.84h34.428v.714Z" transform="translate(1046.837 861.16)" fill="url(#linear-gradient)"/>
        </g>
        <g id="_1-22" data-name="1" transform="translate(412.655 1877)">
          <path id="Path_10-22" data-name="Path 10" d="M80.255,50.125H27.685V15.27c0-9.432,3.711-12.715,9.571-12.715V1.84H3.83v.714c5.861,0,9.571,3.284,9.571,12.715V88.41c0,9.432-3.711,12.715-9.571,12.715v.714H37.257v-.714c-5.861,0-9.571-3.284-9.571-12.715V51.84h52.57V88.41c0,9.432-3.711,12.715-9.572,12.715v.714H104.11v-.714c-5.861,0-9.571-3.284-9.571-12.715V15.27c0-9.432,3.711-12.715,9.571-12.715V1.84H70.683v.714c5.861,0,9.571,3.284,9.571,12.715Z" transform="translate(56.021 -1.84)" fill="url(#linear-gradient-3)"/>
          <path id="Path_11-22" data-name="Path 11" d="M186.719,43.837,159.293,80.267c-12.428,16.426-20.711,20.858-25.283,20.858v.714c20,0,28.287-.714,37.572-13.142l26.712-35.856L169.152,24.7c-10-9.571-4.712-21.713,8.717-22.147V1.84H143.442v.714Z" transform="translate(-134.01 -1.84)" fill="url(#linear-gradient-3)"/>
        </g>
        <g id="_1-23" data-name="1" transform="translate(-512.214 1014)">
          <path id="Path_10-23" data-name="Path 10" d="M27.685,50.125h52.57V15.27c0-9.432-3.711-12.715-9.571-12.715V1.84H104.11v.714c-5.861,0-9.571,3.284-9.571,12.715V88.41c0,9.432,3.711,12.715,9.571,12.715v.714H70.683v-.714c5.861,0,9.571-3.284,9.571-12.715V51.84H27.685V88.41c0,9.432,3.711,12.715,9.571,12.715v.714H3.83v-.714c5.861,0,9.571-3.284,9.571-12.715V15.27C13.4,5.838,9.691,2.554,3.83,2.554V1.84H37.257v.714c-5.861,0-9.571,3.284-9.571,12.715Z" transform="translate(1081.17 861.16)" fill="url(#linear-gradient)"/>
          <path id="Path_11-23" data-name="Path 11" d="M145.584,43.837,173.01,80.267c12.428,16.426,20.711,20.858,25.283,20.858v.714c-20,0-28.287-.714-37.572-13.142L134.01,52.841,163.151,24.7c10-9.571,4.712-21.713-8.717-22.147V1.84h34.428v.714Z" transform="translate(1046.837 861.16)" fill="url(#linear-gradient)"/>
        </g>
        <g id="_1-24" data-name="1" transform="translate(732.917 1877)">
          <path id="Path_10-24" data-name="Path 10" d="M80.255,50.125H27.685V15.27c0-9.432,3.711-12.715,9.571-12.715V1.84H3.83v.714c5.861,0,9.571,3.284,9.571,12.715V88.41c0,9.432-3.711,12.715-9.571,12.715v.714H37.257v-.714c-5.861,0-9.571-3.284-9.571-12.715V51.84h52.57V88.41c0,9.432-3.711,12.715-9.572,12.715v.714H104.11v-.714c-5.861,0-9.571-3.284-9.571-12.715V15.27c0-9.432,3.711-12.715,9.571-12.715V1.84H70.683v.714c5.861,0,9.571,3.284,9.571,12.715Z" transform="translate(56.021 -1.84)" fill="url(#linear-gradient-3)"/>
          <path id="Path_11-24" data-name="Path 11" d="M186.719,43.837,159.293,80.267c-12.428,16.426-20.711,20.858-25.283,20.858v.714c20,0,28.287-.714,37.572-13.142l26.712-35.856L169.152,24.7c-10-9.571-4.712-21.713,8.717-22.147V1.84H143.442v.714Z" transform="translate(-134.01 -1.84)" fill="url(#linear-gradient-3)"/>
        </g>
        <g id="_1-25" data-name="1" transform="translate(-191.951 1014)">
          <path id="Path_10-25" data-name="Path 10" d="M27.685,50.125h52.57V15.27c0-9.432-3.711-12.715-9.571-12.715V1.84H104.11v.714c-5.861,0-9.571,3.284-9.571,12.715V88.41c0,9.432,3.711,12.715,9.571,12.715v.714H70.683v-.714c5.861,0,9.571-3.284,9.571-12.715V51.84H27.685V88.41c0,9.432,3.711,12.715,9.571,12.715v.714H3.83v-.714c5.861,0,9.571-3.284,9.571-12.715V15.27C13.4,5.838,9.691,2.554,3.83,2.554V1.84H37.257v.714c-5.861,0-9.571,3.284-9.571,12.715Z" transform="translate(1081.17 861.16)" fill="url(#linear-gradient)"/>
          <path id="Path_11-25" data-name="Path 11" d="M145.584,43.837,173.01,80.267c12.428,16.426,20.711,20.858,25.283,20.858v.714c-20,0-28.287-.714-37.572-13.142L134.01,52.841,163.151,24.7c10-9.571,4.712-21.713-8.717-22.147V1.84h34.428v.714Z" transform="translate(1046.837 861.16)" fill="url(#linear-gradient)"/>
        </g>
        <g id="_1-26" data-name="1" transform="translate(1053.18 1877)">
          <path id="Path_10-26" data-name="Path 10" d="M80.255,50.125H27.685V15.27c0-9.432,3.711-12.715,9.571-12.715V1.84H3.83v.714c5.861,0,9.571,3.284,9.571,12.715V88.41c0,9.432-3.711,12.715-9.571,12.715v.714H37.257v-.714c-5.861,0-9.571-3.284-9.571-12.715V51.84h52.57V88.41c0,9.432-3.711,12.715-9.572,12.715v.714H104.11v-.714c-5.861,0-9.571-3.284-9.571-12.715V15.27c0-9.432,3.711-12.715,9.571-12.715V1.84H70.683v.714c5.861,0,9.571,3.284,9.571,12.715Z" transform="translate(56.021 -1.84)" fill="url(#linear-gradient-3)"/>
          <path id="Path_11-26" data-name="Path 11" d="M186.719,43.837,159.293,80.267c-12.428,16.426-20.711,20.858-25.283,20.858v.714c20,0,28.287-.714,37.572-13.142l26.712-35.856L169.152,24.7c-10-9.571-4.712-21.713,8.717-22.147V1.84H143.442v.714Z" transform="translate(-134.01 -1.84)" fill="url(#linear-gradient-3)"/>
        </g>
        <g id="_1-27" data-name="1" transform="translate(128.311 1014)">
          <path id="Path_10-27" data-name="Path 10" d="M27.685,50.125h52.57V15.27c0-9.432-3.711-12.715-9.571-12.715V1.84H104.11v.714c-5.861,0-9.571,3.284-9.571,12.715V88.41c0,9.432,3.711,12.715,9.571,12.715v.714H70.683v-.714c5.861,0,9.571-3.284,9.571-12.715V51.84H27.685V88.41c0,9.432,3.711,12.715,9.571,12.715v.714H3.83v-.714c5.861,0,9.571-3.284,9.571-12.715V15.27C13.4,5.838,9.691,2.554,3.83,2.554V1.84H37.257v.714c-5.861,0-9.571,3.284-9.571,12.715Z" transform="translate(1081.17 861.16)" fill="url(#linear-gradient)"/>
          <path id="Path_11-27" data-name="Path 11" d="M145.584,43.837,173.01,80.267c12.428,16.426,20.711,20.858,25.283,20.858v.714c-20,0-28.287-.714-37.572-13.142L134.01,52.841,163.151,24.7c10-9.571,4.712-21.713-8.717-22.147V1.84h34.428v.714Z" transform="translate(1046.837 861.16)" fill="url(#linear-gradient)"/>
        </g>
        <g id="_1-28" data-name="1" transform="translate(1373.442 1877)">
          <path id="Path_10-28" data-name="Path 10" d="M80.255,50.125H27.685V15.27c0-9.432,3.711-12.715,9.571-12.715V1.84H3.83v.714c5.861,0,9.571,3.284,9.571,12.715V88.41c0,9.432-3.711,12.715-9.571,12.715v.714H37.257v-.714c-5.861,0-9.571-3.284-9.571-12.715V51.84h52.57V88.41c0,9.432-3.711,12.715-9.572,12.715v.714H104.11v-.714c-5.861,0-9.571-3.284-9.571-12.715V15.27c0-9.432,3.711-12.715,9.571-12.715V1.84H70.683v.714c5.861,0,9.571,3.284,9.571,12.715Z" transform="translate(56.021 -1.84)" fill="url(#linear-gradient-3)"/>
          <path id="Path_11-28" data-name="Path 11" d="M186.719,43.837,159.293,80.267c-12.428,16.426-20.711,20.858-25.283,20.858v.714c20,0,28.287-.714,37.572-13.142l26.712-35.856L169.152,24.7c-10-9.571-4.712-21.713,8.717-22.147V1.84H143.442v.714Z" transform="translate(-134.01 -1.84)" fill="url(#linear-gradient-3)"/>
        </g>
        <g id="_1-29" data-name="1" transform="translate(448.573 1014)">
          <path id="Path_10-29" data-name="Path 10" d="M27.685,50.125h52.57V15.27c0-9.432-3.711-12.715-9.571-12.715V1.84H104.11v.714c-5.861,0-9.571,3.284-9.571,12.715V88.41c0,9.432,3.711,12.715,9.571,12.715v.714H70.683v-.714c5.861,0,9.571-3.284,9.571-12.715V51.84H27.685V88.41c0,9.432,3.711,12.715,9.571,12.715v.714H3.83v-.714c5.861,0,9.571-3.284,9.571-12.715V15.27C13.4,5.838,9.691,2.554,3.83,2.554V1.84H37.257v.714c-5.861,0-9.571,3.284-9.571,12.715Z" transform="translate(1081.17 861.16)" fill="url(#linear-gradient)"/>
          <path id="Path_11-29" data-name="Path 11" d="M145.584,43.837,173.01,80.267c12.428,16.426,20.711,20.858,25.283,20.858v.714c-20,0-28.287-.714-37.572-13.142L134.01,52.841,163.151,24.7c10-9.571,4.712-21.713-8.717-22.147V1.84h34.428v.714Z" transform="translate(1046.837 861.16)" fill="url(#linear-gradient)"/>
        </g>
        <g id="_1-30" data-name="1" transform="translate(1693.704 1877)">
          <path id="Path_10-30" data-name="Path 10" d="M80.255,50.125H27.685V15.27c0-9.432,3.711-12.715,9.571-12.715V1.84H3.83v.714c5.861,0,9.571,3.284,9.571,12.715V88.41c0,9.432-3.711,12.715-9.571,12.715v.714H37.257v-.714c-5.861,0-9.571-3.284-9.571-12.715V51.84h52.57V88.41c0,9.432-3.711,12.715-9.572,12.715v.714H104.11v-.714c-5.861,0-9.571-3.284-9.571-12.715V15.27c0-9.432,3.711-12.715,9.571-12.715V1.84H70.683v.714c5.861,0,9.571,3.284,9.571,12.715Z" transform="translate(56.021 -1.84)" fill="url(#linear-gradient-3)"/>
          <path id="Path_11-30" data-name="Path 11" d="M186.719,43.837,159.293,80.267c-12.428,16.426-20.711,20.858-25.283,20.858v.714c20,0,28.287-.714,37.572-13.142l26.712-35.856L169.152,24.7c-10-9.571-4.712-21.713,8.717-22.147V1.84H143.442v.714Z" transform="translate(-134.01 -1.84)" fill="url(#linear-gradient-3)"/>
        </g>
        <g id="_1-31" data-name="1" transform="translate(768.835 1014)">
          <path id="Path_10-31" data-name="Path 10" d="M27.685,50.125h52.57V15.27c0-9.432-3.711-12.715-9.571-12.715V1.84H104.11v.714c-5.861,0-9.571,3.284-9.571,12.715V88.41c0,9.432,3.711,12.715,9.571,12.715v.714H70.683v-.714c5.861,0,9.571-3.284,9.571-12.715V51.84H27.685V88.41c0,9.432,3.711,12.715,9.571,12.715v.714H3.83v-.714c5.861,0,9.571-3.284,9.571-12.715V15.27C13.4,5.838,9.691,2.554,3.83,2.554V1.84H37.257v.714c-5.861,0-9.571,3.284-9.571,12.715Z" transform="translate(1081.17 861.16)" fill="url(#linear-gradient)"/>
          <path id="Path_11-31" data-name="Path 11" d="M145.584,43.837,173.01,80.267c12.428,16.426,20.711,20.858,25.283,20.858v.714c-20,0-28.287-.714-37.572-13.142L134.01,52.841,163.151,24.7c10-9.571,4.712-21.713-8.717-22.147V1.84h34.428v.714Z" transform="translate(1046.837 861.16)" fill="url(#linear-gradient)"/>
        </g>
        <g id="_1-32" data-name="1" transform="translate(2013.966 1877)">
          <path id="Path_10-32" data-name="Path 10" d="M80.255,50.125H27.685V15.27c0-9.432,3.711-12.715,9.571-12.715V1.84H3.83v.714c5.861,0,9.571,3.284,9.571,12.715V88.41c0,9.432-3.711,12.715-9.571,12.715v.714H37.257v-.714c-5.861,0-9.571-3.284-9.571-12.715V51.84h52.57V88.41c0,9.432-3.711,12.715-9.572,12.715v.714H104.11v-.714c-5.861,0-9.571-3.284-9.571-12.715V15.27c0-9.432,3.711-12.715,9.571-12.715V1.84H70.683v.714c5.861,0,9.571,3.284,9.571,12.715Z" transform="translate(56.021 -1.84)" fill="url(#linear-gradient-3)"/>
          <path id="Path_11-32" data-name="Path 11" d="M186.719,43.837,159.293,80.267c-12.428,16.426-20.711,20.858-25.283,20.858v.714c20,0,28.287-.714,37.572-13.142l26.712-35.856L169.152,24.7c-10-9.571-4.712-21.713,8.717-22.147V1.84H143.442v.714Z" transform="translate(-134.01 -1.84)" fill="url(#linear-gradient-3)"/>
        </g>
      </g>
      <g id="Row3" transform="translate(0 200)">
        <g id="_1-33" data-name="1" transform="translate(-1473 1014)">
          <path id="Path_10-33" data-name="Path 10" d="M27.685,50.125h52.57V15.27c0-9.432-3.711-12.715-9.571-12.715V1.84H104.11v.714c-5.861,0-9.571,3.284-9.571,12.715V88.41c0,9.432,3.711,12.715,9.571,12.715v.714H70.683v-.714c5.861,0,9.571-3.284,9.571-12.715V51.84H27.685V88.41c0,9.432,3.711,12.715,9.571,12.715v.714H3.83v-.714c5.861,0,9.571-3.284,9.571-12.715V15.27C13.4,5.838,9.691,2.554,3.83,2.554V1.84H37.257v.714c-5.861,0-9.571,3.284-9.571,12.715Z" transform="translate(1081.17 861.16)" fill="url(#linear-gradient)"/>
          <path id="Path_11-33" data-name="Path 11" d="M145.584,43.837,173.01,80.267c12.428,16.426,20.711,20.858,25.283,20.858v.714c-20,0-28.287-.714-37.572-13.142L134.01,52.841,163.151,24.7c10-9.571,4.712-21.713-8.717-22.147V1.84h34.428v.714Z" transform="translate(1046.837 861.16)" fill="url(#linear-gradient)"/>
        </g>
        <g id="_1-34" data-name="1" transform="translate(-227.869 1877)">
          <path id="Path_10-34" data-name="Path 10" d="M80.255,50.125H27.685V15.27c0-9.432,3.711-12.715,9.571-12.715V1.84H3.83v.714c5.861,0,9.571,3.284,9.571,12.715V88.41c0,9.432-3.711,12.715-9.571,12.715v.714H37.257v-.714c-5.861,0-9.571-3.284-9.571-12.715V51.84h52.57V88.41c0,9.432-3.711,12.715-9.572,12.715v.714H104.11v-.714c-5.861,0-9.571-3.284-9.571-12.715V15.27c0-9.432,3.711-12.715,9.571-12.715V1.84H70.683v.714c5.861,0,9.571,3.284,9.571,12.715Z" transform="translate(56.021 -1.84)" fill="url(#linear-gradient-3)"/>
          <path id="Path_11-34" data-name="Path 11" d="M186.719,43.837,159.293,80.267c-12.428,16.426-20.711,20.858-25.283,20.858v.714c20,0,28.287-.714,37.572-13.142l26.712-35.856L169.152,24.7c-10-9.571-4.712-21.713,8.717-22.147V1.84H143.442v.714Z" transform="translate(-134.01 -1.84)" fill="url(#linear-gradient-3)"/>
        </g>
        <g id="_1-35" data-name="1" transform="translate(-1152.738 1014)">
          <path id="Path_10-35" data-name="Path 10" d="M27.685,50.125h52.57V15.27c0-9.432-3.711-12.715-9.571-12.715V1.84H104.11v.714c-5.861,0-9.571,3.284-9.571,12.715V88.41c0,9.432,3.711,12.715,9.571,12.715v.714H70.683v-.714c5.861,0,9.571-3.284,9.571-12.715V51.84H27.685V88.41c0,9.432,3.711,12.715,9.571,12.715v.714H3.83v-.714c5.861,0,9.571-3.284,9.571-12.715V15.27C13.4,5.838,9.691,2.554,3.83,2.554V1.84H37.257v.714c-5.861,0-9.571,3.284-9.571,12.715Z" transform="translate(1081.17 861.16)" fill="url(#linear-gradient)"/>
          <path id="Path_11-35" data-name="Path 11" d="M145.584,43.837,173.01,80.267c12.428,16.426,20.711,20.858,25.283,20.858v.714c-20,0-28.287-.714-37.572-13.142L134.01,52.841,163.151,24.7c10-9.571,4.712-21.713-8.717-22.147V1.84h34.428v.714Z" transform="translate(1046.837 861.16)" fill="url(#linear-gradient)"/>
        </g>
        <g id="_1-36" data-name="1" transform="translate(92.393 1877)">
          <path id="Path_10-36" data-name="Path 10" d="M80.255,50.125H27.685V15.27c0-9.432,3.711-12.715,9.571-12.715V1.84H3.83v.714c5.861,0,9.571,3.284,9.571,12.715V88.41c0,9.432-3.711,12.715-9.571,12.715v.714H37.257v-.714c-5.861,0-9.571-3.284-9.571-12.715V51.84h52.57V88.41c0,9.432-3.711,12.715-9.572,12.715v.714H104.11v-.714c-5.861,0-9.571-3.284-9.571-12.715V15.27c0-9.432,3.711-12.715,9.571-12.715V1.84H70.683v.714c5.861,0,9.571,3.284,9.571,12.715Z" transform="translate(56.021 -1.84)" fill="url(#linear-gradient-3)"/>
          <path id="Path_11-36" data-name="Path 11" d="M186.719,43.837,159.293,80.267c-12.428,16.426-20.711,20.858-25.283,20.858v.714c20,0,28.287-.714,37.572-13.142l26.712-35.856L169.152,24.7c-10-9.571-4.712-21.713,8.717-22.147V1.84H143.442v.714Z" transform="translate(-134.01 -1.84)" fill="url(#linear-gradient-3)"/>
        </g>
        <g id="_1-37" data-name="1" transform="translate(-832.476 1014)">
          <path id="Path_10-37" data-name="Path 10" d="M27.685,50.125h52.57V15.27c0-9.432-3.711-12.715-9.571-12.715V1.84H104.11v.714c-5.861,0-9.571,3.284-9.571,12.715V88.41c0,9.432,3.711,12.715,9.571,12.715v.714H70.683v-.714c5.861,0,9.571-3.284,9.571-12.715V51.84H27.685V88.41c0,9.432,3.711,12.715,9.571,12.715v.714H3.83v-.714c5.861,0,9.571-3.284,9.571-12.715V15.27C13.4,5.838,9.691,2.554,3.83,2.554V1.84H37.257v.714c-5.861,0-9.571,3.284-9.571,12.715Z" transform="translate(1081.17 861.16)" fill="url(#linear-gradient)"/>
          <path id="Path_11-37" data-name="Path 11" d="M145.584,43.837,173.01,80.267c12.428,16.426,20.711,20.858,25.283,20.858v.714c-20,0-28.287-.714-37.572-13.142L134.01,52.841,163.151,24.7c10-9.571,4.712-21.713-8.717-22.147V1.84h34.428v.714Z" transform="translate(1046.837 861.16)" fill="url(#linear-gradient)"/>
        </g>
        <g id="_1-38" data-name="1" transform="translate(412.655 1877)">
          <path id="Path_10-38" data-name="Path 10" d="M80.255,50.125H27.685V15.27c0-9.432,3.711-12.715,9.571-12.715V1.84H3.83v.714c5.861,0,9.571,3.284,9.571,12.715V88.41c0,9.432-3.711,12.715-9.571,12.715v.714H37.257v-.714c-5.861,0-9.571-3.284-9.571-12.715V51.84h52.57V88.41c0,9.432-3.711,12.715-9.572,12.715v.714H104.11v-.714c-5.861,0-9.571-3.284-9.571-12.715V15.27c0-9.432,3.711-12.715,9.571-12.715V1.84H70.683v.714c5.861,0,9.571,3.284,9.571,12.715Z" transform="translate(56.021 -1.84)" fill="url(#linear-gradient-3)"/>
          <path id="Path_11-38" data-name="Path 11" d="M186.719,43.837,159.293,80.267c-12.428,16.426-20.711,20.858-25.283,20.858v.714c20,0,28.287-.714,37.572-13.142l26.712-35.856L169.152,24.7c-10-9.571-4.712-21.713,8.717-22.147V1.84H143.442v.714Z" transform="translate(-134.01 -1.84)" fill="url(#linear-gradient-3)"/>
        </g>
        <g id="_1-39" data-name="1" transform="translate(-512.214 1014)">
          <path id="Path_10-39" data-name="Path 10" d="M27.685,50.125h52.57V15.27c0-9.432-3.711-12.715-9.571-12.715V1.84H104.11v.714c-5.861,0-9.571,3.284-9.571,12.715V88.41c0,9.432,3.711,12.715,9.571,12.715v.714H70.683v-.714c5.861,0,9.571-3.284,9.571-12.715V51.84H27.685V88.41c0,9.432,3.711,12.715,9.571,12.715v.714H3.83v-.714c5.861,0,9.571-3.284,9.571-12.715V15.27C13.4,5.838,9.691,2.554,3.83,2.554V1.84H37.257v.714c-5.861,0-9.571,3.284-9.571,12.715Z" transform="translate(1081.17 861.16)" fill="url(#linear-gradient)"/>
          <path id="Path_11-39" data-name="Path 11" d="M145.584,43.837,173.01,80.267c12.428,16.426,20.711,20.858,25.283,20.858v.714c-20,0-28.287-.714-37.572-13.142L134.01,52.841,163.151,24.7c10-9.571,4.712-21.713-8.717-22.147V1.84h34.428v.714Z" transform="translate(1046.837 861.16)" fill="url(#linear-gradient)"/>
        </g>
        <g id="_1-40" data-name="1" transform="translate(732.917 1877)">
          <path id="Path_10-40" data-name="Path 10" d="M80.255,50.125H27.685V15.27c0-9.432,3.711-12.715,9.571-12.715V1.84H3.83v.714c5.861,0,9.571,3.284,9.571,12.715V88.41c0,9.432-3.711,12.715-9.571,12.715v.714H37.257v-.714c-5.861,0-9.571-3.284-9.571-12.715V51.84h52.57V88.41c0,9.432-3.711,12.715-9.572,12.715v.714H104.11v-.714c-5.861,0-9.571-3.284-9.571-12.715V15.27c0-9.432,3.711-12.715,9.571-12.715V1.84H70.683v.714c5.861,0,9.571,3.284,9.571,12.715Z" transform="translate(56.021 -1.84)" fill="url(#linear-gradient-3)"/>
          <path id="Path_11-40" data-name="Path 11" d="M186.719,43.837,159.293,80.267c-12.428,16.426-20.711,20.858-25.283,20.858v.714c20,0,28.287-.714,37.572-13.142l26.712-35.856L169.152,24.7c-10-9.571-4.712-21.713,8.717-22.147V1.84H143.442v.714Z" transform="translate(-134.01 -1.84)" fill="url(#linear-gradient-3)"/>
        </g>
        <g id="_1-41" data-name="1" transform="translate(-191.951 1014)">
          <path id="Path_10-41" data-name="Path 10" d="M27.685,50.125h52.57V15.27c0-9.432-3.711-12.715-9.571-12.715V1.84H104.11v.714c-5.861,0-9.571,3.284-9.571,12.715V88.41c0,9.432,3.711,12.715,9.571,12.715v.714H70.683v-.714c5.861,0,9.571-3.284,9.571-12.715V51.84H27.685V88.41c0,9.432,3.711,12.715,9.571,12.715v.714H3.83v-.714c5.861,0,9.571-3.284,9.571-12.715V15.27C13.4,5.838,9.691,2.554,3.83,2.554V1.84H37.257v.714c-5.861,0-9.571,3.284-9.571,12.715Z" transform="translate(1081.17 861.16)" fill="url(#linear-gradient)"/>
          <path id="Path_11-41" data-name="Path 11" d="M145.584,43.837,173.01,80.267c12.428,16.426,20.711,20.858,25.283,20.858v.714c-20,0-28.287-.714-37.572-13.142L134.01,52.841,163.151,24.7c10-9.571,4.712-21.713-8.717-22.147V1.84h34.428v.714Z" transform="translate(1046.837 861.16)" fill="url(#linear-gradient)"/>
        </g>
        <g id="_1-42" data-name="1" transform="translate(1053.18 1877)">
          <path id="Path_10-42" data-name="Path 10" d="M80.255,50.125H27.685V15.27c0-9.432,3.711-12.715,9.571-12.715V1.84H3.83v.714c5.861,0,9.571,3.284,9.571,12.715V88.41c0,9.432-3.711,12.715-9.571,12.715v.714H37.257v-.714c-5.861,0-9.571-3.284-9.571-12.715V51.84h52.57V88.41c0,9.432-3.711,12.715-9.572,12.715v.714H104.11v-.714c-5.861,0-9.571-3.284-9.571-12.715V15.27c0-9.432,3.711-12.715,9.571-12.715V1.84H70.683v.714c5.861,0,9.571,3.284,9.571,12.715Z" transform="translate(56.021 -1.84)" fill="url(#linear-gradient-3)"/>
          <path id="Path_11-42" data-name="Path 11" d="M186.719,43.837,159.293,80.267c-12.428,16.426-20.711,20.858-25.283,20.858v.714c20,0,28.287-.714,37.572-13.142l26.712-35.856L169.152,24.7c-10-9.571-4.712-21.713,8.717-22.147V1.84H143.442v.714Z" transform="translate(-134.01 -1.84)" fill="url(#linear-gradient-3)"/>
        </g>
        <g id="_1-43" data-name="1" transform="translate(128.311 1014)">
          <path id="Path_10-43" data-name="Path 10" d="M27.685,50.125h52.57V15.27c0-9.432-3.711-12.715-9.571-12.715V1.84H104.11v.714c-5.861,0-9.571,3.284-9.571,12.715V88.41c0,9.432,3.711,12.715,9.571,12.715v.714H70.683v-.714c5.861,0,9.571-3.284,9.571-12.715V51.84H27.685V88.41c0,9.432,3.711,12.715,9.571,12.715v.714H3.83v-.714c5.861,0,9.571-3.284,9.571-12.715V15.27C13.4,5.838,9.691,2.554,3.83,2.554V1.84H37.257v.714c-5.861,0-9.571,3.284-9.571,12.715Z" transform="translate(1081.17 861.16)" fill="url(#linear-gradient)"/>
          <path id="Path_11-43" data-name="Path 11" d="M145.584,43.837,173.01,80.267c12.428,16.426,20.711,20.858,25.283,20.858v.714c-20,0-28.287-.714-37.572-13.142L134.01,52.841,163.151,24.7c10-9.571,4.712-21.713-8.717-22.147V1.84h34.428v.714Z" transform="translate(1046.837 861.16)" fill="url(#linear-gradient)"/>
        </g>
        <g id="_1-44" data-name="1" transform="translate(1373.442 1877)">
          <path id="Path_10-44" data-name="Path 10" d="M80.255,50.125H27.685V15.27c0-9.432,3.711-12.715,9.571-12.715V1.84H3.83v.714c5.861,0,9.571,3.284,9.571,12.715V88.41c0,9.432-3.711,12.715-9.571,12.715v.714H37.257v-.714c-5.861,0-9.571-3.284-9.571-12.715V51.84h52.57V88.41c0,9.432-3.711,12.715-9.572,12.715v.714H104.11v-.714c-5.861,0-9.571-3.284-9.571-12.715V15.27c0-9.432,3.711-12.715,9.571-12.715V1.84H70.683v.714c5.861,0,9.571,3.284,9.571,12.715Z" transform="translate(56.021 -1.84)" fill="url(#linear-gradient-3)"/>
          <path id="Path_11-44" data-name="Path 11" d="M186.719,43.837,159.293,80.267c-12.428,16.426-20.711,20.858-25.283,20.858v.714c20,0,28.287-.714,37.572-13.142l26.712-35.856L169.152,24.7c-10-9.571-4.712-21.713,8.717-22.147V1.84H143.442v.714Z" transform="translate(-134.01 -1.84)" fill="url(#linear-gradient-3)"/>
        </g>
        <g id="_1-45" data-name="1" transform="translate(448.573 1014)">
          <path id="Path_10-45" data-name="Path 10" d="M27.685,50.125h52.57V15.27c0-9.432-3.711-12.715-9.571-12.715V1.84H104.11v.714c-5.861,0-9.571,3.284-9.571,12.715V88.41c0,9.432,3.711,12.715,9.571,12.715v.714H70.683v-.714c5.861,0,9.571-3.284,9.571-12.715V51.84H27.685V88.41c0,9.432,3.711,12.715,9.571,12.715v.714H3.83v-.714c5.861,0,9.571-3.284,9.571-12.715V15.27C13.4,5.838,9.691,2.554,3.83,2.554V1.84H37.257v.714c-5.861,0-9.571,3.284-9.571,12.715Z" transform="translate(1081.17 861.16)" fill="url(#linear-gradient)"/>
          <path id="Path_11-45" data-name="Path 11" d="M145.584,43.837,173.01,80.267c12.428,16.426,20.711,20.858,25.283,20.858v.714c-20,0-28.287-.714-37.572-13.142L134.01,52.841,163.151,24.7c10-9.571,4.712-21.713-8.717-22.147V1.84h34.428v.714Z" transform="translate(1046.837 861.16)" fill="url(#linear-gradient)"/>
        </g>
        <g id="_1-46" data-name="1" transform="translate(1693.704 1877)">
          <path id="Path_10-46" data-name="Path 10" d="M80.255,50.125H27.685V15.27c0-9.432,3.711-12.715,9.571-12.715V1.84H3.83v.714c5.861,0,9.571,3.284,9.571,12.715V88.41c0,9.432-3.711,12.715-9.571,12.715v.714H37.257v-.714c-5.861,0-9.571-3.284-9.571-12.715V51.84h52.57V88.41c0,9.432-3.711,12.715-9.572,12.715v.714H104.11v-.714c-5.861,0-9.571-3.284-9.571-12.715V15.27c0-9.432,3.711-12.715,9.571-12.715V1.84H70.683v.714c5.861,0,9.571,3.284,9.571,12.715Z" transform="translate(56.021 -1.84)" fill="url(#linear-gradient-3)"/>
          <path id="Path_11-46" data-name="Path 11" d="M186.719,43.837,159.293,80.267c-12.428,16.426-20.711,20.858-25.283,20.858v.714c20,0,28.287-.714,37.572-13.142l26.712-35.856L169.152,24.7c-10-9.571-4.712-21.713,8.717-22.147V1.84H143.442v.714Z" transform="translate(-134.01 -1.84)" fill="url(#linear-gradient-3)"/>
        </g>
        <g id="_1-47" data-name="1" transform="translate(768.835 1014)">
          <path id="Path_10-47" data-name="Path 10" d="M27.685,50.125h52.57V15.27c0-9.432-3.711-12.715-9.571-12.715V1.84H104.11v.714c-5.861,0-9.571,3.284-9.571,12.715V88.41c0,9.432,3.711,12.715,9.571,12.715v.714H70.683v-.714c5.861,0,9.571-3.284,9.571-12.715V51.84H27.685V88.41c0,9.432,3.711,12.715,9.571,12.715v.714H3.83v-.714c5.861,0,9.571-3.284,9.571-12.715V15.27C13.4,5.838,9.691,2.554,3.83,2.554V1.84H37.257v.714c-5.861,0-9.571,3.284-9.571,12.715Z" transform="translate(1081.17 861.16)" fill="url(#linear-gradient)"/>
          <path id="Path_11-47" data-name="Path 11" d="M145.584,43.837,173.01,80.267c12.428,16.426,20.711,20.858,25.283,20.858v.714c-20,0-28.287-.714-37.572-13.142L134.01,52.841,163.151,24.7c10-9.571,4.712-21.713-8.717-22.147V1.84h34.428v.714Z" transform="translate(1046.837 861.16)" fill="url(#linear-gradient)"/>
        </g>
        <g id="_1-48" data-name="1" transform="translate(2013.966 1877)">
          <path id="Path_10-48" data-name="Path 10" d="M80.255,50.125H27.685V15.27c0-9.432,3.711-12.715,9.571-12.715V1.84H3.83v.714c5.861,0,9.571,3.284,9.571,12.715V88.41c0,9.432-3.711,12.715-9.571,12.715v.714H37.257v-.714c-5.861,0-9.571-3.284-9.571-12.715V51.84h52.57V88.41c0,9.432-3.711,12.715-9.572,12.715v.714H104.11v-.714c-5.861,0-9.571-3.284-9.571-12.715V15.27c0-9.432,3.711-12.715,9.571-12.715V1.84H70.683v.714c5.861,0,9.571,3.284,9.571,12.715Z" transform="translate(56.021 -1.84)" fill="url(#linear-gradient-3)"/>
          <path id="Path_11-48" data-name="Path 11" d="M186.719,43.837,159.293,80.267c-12.428,16.426-20.711,20.858-25.283,20.858v.714c20,0,28.287-.714,37.572-13.142l26.712-35.856L169.152,24.7c-10-9.571-4.712-21.713,8.717-22.147V1.84H143.442v.714Z" transform="translate(-134.01 -1.84)" fill="url(#linear-gradient-3)"/>
        </g>
      </g>
      <g id="Row4" transform="translate(-156 300)">
        <g id="_1-49" data-name="1" transform="translate(-1473 1014)">
          <path id="Path_10-49" data-name="Path 10" d="M27.685,50.125h52.57V15.27c0-9.432-3.711-12.715-9.571-12.715V1.84H104.11v.714c-5.861,0-9.571,3.284-9.571,12.715V88.41c0,9.432,3.711,12.715,9.571,12.715v.714H70.683v-.714c5.861,0,9.571-3.284,9.571-12.715V51.84H27.685V88.41c0,9.432,3.711,12.715,9.571,12.715v.714H3.83v-.714c5.861,0,9.571-3.284,9.571-12.715V15.27C13.4,5.838,9.691,2.554,3.83,2.554V1.84H37.257v.714c-5.861,0-9.571,3.284-9.571,12.715Z" transform="translate(1081.17 861.16)" fill="url(#linear-gradient)"/>
          <path id="Path_11-49" data-name="Path 11" d="M145.584,43.837,173.01,80.267c12.428,16.426,20.711,20.858,25.283,20.858v.714c-20,0-28.287-.714-37.572-13.142L134.01,52.841,163.151,24.7c10-9.571,4.712-21.713-8.717-22.147V1.84h34.428v.714Z" transform="translate(1046.837 861.16)" fill="url(#linear-gradient)"/>
        </g>
        <g id="_1-50" data-name="1" transform="translate(-227.869 1877)">
          <path id="Path_10-50" data-name="Path 10" d="M80.255,50.125H27.685V15.27c0-9.432,3.711-12.715,9.571-12.715V1.84H3.83v.714c5.861,0,9.571,3.284,9.571,12.715V88.41c0,9.432-3.711,12.715-9.571,12.715v.714H37.257v-.714c-5.861,0-9.571-3.284-9.571-12.715V51.84h52.57V88.41c0,9.432-3.711,12.715-9.572,12.715v.714H104.11v-.714c-5.861,0-9.571-3.284-9.571-12.715V15.27c0-9.432,3.711-12.715,9.571-12.715V1.84H70.683v.714c5.861,0,9.571,3.284,9.571,12.715Z" transform="translate(56.021 -1.84)" fill="url(#linear-gradient-3)"/>
          <path id="Path_11-50" data-name="Path 11" d="M186.719,43.837,159.293,80.267c-12.428,16.426-20.711,20.858-25.283,20.858v.714c20,0,28.287-.714,37.572-13.142l26.712-35.856L169.152,24.7c-10-9.571-4.712-21.713,8.717-22.147V1.84H143.442v.714Z" transform="translate(-134.01 -1.84)" fill="url(#linear-gradient-3)"/>
        </g>
        <g id="_1-51" data-name="1" transform="translate(-1152.738 1014)">
          <path id="Path_10-51" data-name="Path 10" d="M27.685,50.125h52.57V15.27c0-9.432-3.711-12.715-9.571-12.715V1.84H104.11v.714c-5.861,0-9.571,3.284-9.571,12.715V88.41c0,9.432,3.711,12.715,9.571,12.715v.714H70.683v-.714c5.861,0,9.571-3.284,9.571-12.715V51.84H27.685V88.41c0,9.432,3.711,12.715,9.571,12.715v.714H3.83v-.714c5.861,0,9.571-3.284,9.571-12.715V15.27C13.4,5.838,9.691,2.554,3.83,2.554V1.84H37.257v.714c-5.861,0-9.571,3.284-9.571,12.715Z" transform="translate(1081.17 861.16)" fill="url(#linear-gradient)"/>
          <path id="Path_11-51" data-name="Path 11" d="M145.584,43.837,173.01,80.267c12.428,16.426,20.711,20.858,25.283,20.858v.714c-20,0-28.287-.714-37.572-13.142L134.01,52.841,163.151,24.7c10-9.571,4.712-21.713-8.717-22.147V1.84h34.428v.714Z" transform="translate(1046.837 861.16)" fill="url(#linear-gradient)"/>
        </g>
        <g id="_1-52" data-name="1" transform="translate(92.393 1877)">
          <path id="Path_10-52" data-name="Path 10" d="M80.255,50.125H27.685V15.27c0-9.432,3.711-12.715,9.571-12.715V1.84H3.83v.714c5.861,0,9.571,3.284,9.571,12.715V88.41c0,9.432-3.711,12.715-9.571,12.715v.714H37.257v-.714c-5.861,0-9.571-3.284-9.571-12.715V51.84h52.57V88.41c0,9.432-3.711,12.715-9.572,12.715v.714H104.11v-.714c-5.861,0-9.571-3.284-9.571-12.715V15.27c0-9.432,3.711-12.715,9.571-12.715V1.84H70.683v.714c5.861,0,9.571,3.284,9.571,12.715Z" transform="translate(56.021 -1.84)" fill="url(#linear-gradient-3)"/>
          <path id="Path_11-52" data-name="Path 11" d="M186.719,43.837,159.293,80.267c-12.428,16.426-20.711,20.858-25.283,20.858v.714c20,0,28.287-.714,37.572-13.142l26.712-35.856L169.152,24.7c-10-9.571-4.712-21.713,8.717-22.147V1.84H143.442v.714Z" transform="translate(-134.01 -1.84)" fill="url(#linear-gradient-3)"/>
        </g>
        <g id="_1-53" data-name="1" transform="translate(-832.476 1014)">
          <path id="Path_10-53" data-name="Path 10" d="M27.685,50.125h52.57V15.27c0-9.432-3.711-12.715-9.571-12.715V1.84H104.11v.714c-5.861,0-9.571,3.284-9.571,12.715V88.41c0,9.432,3.711,12.715,9.571,12.715v.714H70.683v-.714c5.861,0,9.571-3.284,9.571-12.715V51.84H27.685V88.41c0,9.432,3.711,12.715,9.571,12.715v.714H3.83v-.714c5.861,0,9.571-3.284,9.571-12.715V15.27C13.4,5.838,9.691,2.554,3.83,2.554V1.84H37.257v.714c-5.861,0-9.571,3.284-9.571,12.715Z" transform="translate(1081.17 861.16)" fill="url(#linear-gradient)"/>
          <path id="Path_11-53" data-name="Path 11" d="M145.584,43.837,173.01,80.267c12.428,16.426,20.711,20.858,25.283,20.858v.714c-20,0-28.287-.714-37.572-13.142L134.01,52.841,163.151,24.7c10-9.571,4.712-21.713-8.717-22.147V1.84h34.428v.714Z" transform="translate(1046.837 861.16)" fill="url(#linear-gradient)"/>
        </g>
        <g id="_1-54" data-name="1" transform="translate(412.655 1877)">
          <path id="Path_10-54" data-name="Path 10" d="M80.255,50.125H27.685V15.27c0-9.432,3.711-12.715,9.571-12.715V1.84H3.83v.714c5.861,0,9.571,3.284,9.571,12.715V88.41c0,9.432-3.711,12.715-9.571,12.715v.714H37.257v-.714c-5.861,0-9.571-3.284-9.571-12.715V51.84h52.57V88.41c0,9.432-3.711,12.715-9.572,12.715v.714H104.11v-.714c-5.861,0-9.571-3.284-9.571-12.715V15.27c0-9.432,3.711-12.715,9.571-12.715V1.84H70.683v.714c5.861,0,9.571,3.284,9.571,12.715Z" transform="translate(56.021 -1.84)" fill="url(#linear-gradient-3)"/>
          <path id="Path_11-54" data-name="Path 11" d="M186.719,43.837,159.293,80.267c-12.428,16.426-20.711,20.858-25.283,20.858v.714c20,0,28.287-.714,37.572-13.142l26.712-35.856L169.152,24.7c-10-9.571-4.712-21.713,8.717-22.147V1.84H143.442v.714Z" transform="translate(-134.01 -1.84)" fill="url(#linear-gradient-3)"/>
        </g>
        <g id="_1-55" data-name="1" transform="translate(-512.214 1014)">
          <path id="Path_10-55" data-name="Path 10" d="M27.685,50.125h52.57V15.27c0-9.432-3.711-12.715-9.571-12.715V1.84H104.11v.714c-5.861,0-9.571,3.284-9.571,12.715V88.41c0,9.432,3.711,12.715,9.571,12.715v.714H70.683v-.714c5.861,0,9.571-3.284,9.571-12.715V51.84H27.685V88.41c0,9.432,3.711,12.715,9.571,12.715v.714H3.83v-.714c5.861,0,9.571-3.284,9.571-12.715V15.27C13.4,5.838,9.691,2.554,3.83,2.554V1.84H37.257v.714c-5.861,0-9.571,3.284-9.571,12.715Z" transform="translate(1081.17 861.16)" fill="url(#linear-gradient)"/>
          <path id="Path_11-55" data-name="Path 11" d="M145.584,43.837,173.01,80.267c12.428,16.426,20.711,20.858,25.283,20.858v.714c-20,0-28.287-.714-37.572-13.142L134.01,52.841,163.151,24.7c10-9.571,4.712-21.713-8.717-22.147V1.84h34.428v.714Z" transform="translate(1046.837 861.16)" fill="url(#linear-gradient)"/>
        </g>
        <g id="_1-56" data-name="1" transform="translate(732.917 1877)">
          <path id="Path_10-56" data-name="Path 10" d="M80.255,50.125H27.685V15.27c0-9.432,3.711-12.715,9.571-12.715V1.84H3.83v.714c5.861,0,9.571,3.284,9.571,12.715V88.41c0,9.432-3.711,12.715-9.571,12.715v.714H37.257v-.714c-5.861,0-9.571-3.284-9.571-12.715V51.84h52.57V88.41c0,9.432-3.711,12.715-9.572,12.715v.714H104.11v-.714c-5.861,0-9.571-3.284-9.571-12.715V15.27c0-9.432,3.711-12.715,9.571-12.715V1.84H70.683v.714c5.861,0,9.571,3.284,9.571,12.715Z" transform="translate(56.021 -1.84)" fill="url(#linear-gradient-3)"/>
          <path id="Path_11-56" data-name="Path 11" d="M186.719,43.837,159.293,80.267c-12.428,16.426-20.711,20.858-25.283,20.858v.714c20,0,28.287-.714,37.572-13.142l26.712-35.856L169.152,24.7c-10-9.571-4.712-21.713,8.717-22.147V1.84H143.442v.714Z" transform="translate(-134.01 -1.84)" fill="url(#linear-gradient-3)"/>
        </g>
        <g id="_1-57" data-name="1" transform="translate(-191.951 1014)">
          <path id="Path_10-57" data-name="Path 10" d="M27.685,50.125h52.57V15.27c0-9.432-3.711-12.715-9.571-12.715V1.84H104.11v.714c-5.861,0-9.571,3.284-9.571,12.715V88.41c0,9.432,3.711,12.715,9.571,12.715v.714H70.683v-.714c5.861,0,9.571-3.284,9.571-12.715V51.84H27.685V88.41c0,9.432,3.711,12.715,9.571,12.715v.714H3.83v-.714c5.861,0,9.571-3.284,9.571-12.715V15.27C13.4,5.838,9.691,2.554,3.83,2.554V1.84H37.257v.714c-5.861,0-9.571,3.284-9.571,12.715Z" transform="translate(1081.17 861.16)" fill="url(#linear-gradient)"/>
          <path id="Path_11-57" data-name="Path 11" d="M145.584,43.837,173.01,80.267c12.428,16.426,20.711,20.858,25.283,20.858v.714c-20,0-28.287-.714-37.572-13.142L134.01,52.841,163.151,24.7c10-9.571,4.712-21.713-8.717-22.147V1.84h34.428v.714Z" transform="translate(1046.837 861.16)" fill="url(#linear-gradient)"/>
        </g>
        <g id="_1-58" data-name="1" transform="translate(1053.18 1877)">
          <path id="Path_10-58" data-name="Path 10" d="M80.255,50.125H27.685V15.27c0-9.432,3.711-12.715,9.571-12.715V1.84H3.83v.714c5.861,0,9.571,3.284,9.571,12.715V88.41c0,9.432-3.711,12.715-9.571,12.715v.714H37.257v-.714c-5.861,0-9.571-3.284-9.571-12.715V51.84h52.57V88.41c0,9.432-3.711,12.715-9.572,12.715v.714H104.11v-.714c-5.861,0-9.571-3.284-9.571-12.715V15.27c0-9.432,3.711-12.715,9.571-12.715V1.84H70.683v.714c5.861,0,9.571,3.284,9.571,12.715Z" transform="translate(56.021 -1.84)" fill="url(#linear-gradient-3)"/>
          <path id="Path_11-58" data-name="Path 11" d="M186.719,43.837,159.293,80.267c-12.428,16.426-20.711,20.858-25.283,20.858v.714c20,0,28.287-.714,37.572-13.142l26.712-35.856L169.152,24.7c-10-9.571-4.712-21.713,8.717-22.147V1.84H143.442v.714Z" transform="translate(-134.01 -1.84)" fill="url(#linear-gradient-3)"/>
        </g>
        <g id="_1-59" data-name="1" transform="translate(128.311 1014)">
          <path id="Path_10-59" data-name="Path 10" d="M27.685,50.125h52.57V15.27c0-9.432-3.711-12.715-9.571-12.715V1.84H104.11v.714c-5.861,0-9.571,3.284-9.571,12.715V88.41c0,9.432,3.711,12.715,9.571,12.715v.714H70.683v-.714c5.861,0,9.571-3.284,9.571-12.715V51.84H27.685V88.41c0,9.432,3.711,12.715,9.571,12.715v.714H3.83v-.714c5.861,0,9.571-3.284,9.571-12.715V15.27C13.4,5.838,9.691,2.554,3.83,2.554V1.84H37.257v.714c-5.861,0-9.571,3.284-9.571,12.715Z" transform="translate(1081.17 861.16)" fill="url(#linear-gradient)"/>
          <path id="Path_11-59" data-name="Path 11" d="M145.584,43.837,173.01,80.267c12.428,16.426,20.711,20.858,25.283,20.858v.714c-20,0-28.287-.714-37.572-13.142L134.01,52.841,163.151,24.7c10-9.571,4.712-21.713-8.717-22.147V1.84h34.428v.714Z" transform="translate(1046.837 861.16)" fill="url(#linear-gradient)"/>
        </g>
        <g id="_1-60" data-name="1" transform="translate(1373.442 1877)">
          <path id="Path_10-60" data-name="Path 10" d="M80.255,50.125H27.685V15.27c0-9.432,3.711-12.715,9.571-12.715V1.84H3.83v.714c5.861,0,9.571,3.284,9.571,12.715V88.41c0,9.432-3.711,12.715-9.571,12.715v.714H37.257v-.714c-5.861,0-9.571-3.284-9.571-12.715V51.84h52.57V88.41c0,9.432-3.711,12.715-9.572,12.715v.714H104.11v-.714c-5.861,0-9.571-3.284-9.571-12.715V15.27c0-9.432,3.711-12.715,9.571-12.715V1.84H70.683v.714c5.861,0,9.571,3.284,9.571,12.715Z" transform="translate(56.021 -1.84)" fill="url(#linear-gradient-3)"/>
          <path id="Path_11-60" data-name="Path 11" d="M186.719,43.837,159.293,80.267c-12.428,16.426-20.711,20.858-25.283,20.858v.714c20,0,28.287-.714,37.572-13.142l26.712-35.856L169.152,24.7c-10-9.571-4.712-21.713,8.717-22.147V1.84H143.442v.714Z" transform="translate(-134.01 -1.84)" fill="url(#linear-gradient-3)"/>
        </g>
        <g id="_1-61" data-name="1" transform="translate(448.573 1014)">
          <path id="Path_10-61" data-name="Path 10" d="M27.685,50.125h52.57V15.27c0-9.432-3.711-12.715-9.571-12.715V1.84H104.11v.714c-5.861,0-9.571,3.284-9.571,12.715V88.41c0,9.432,3.711,12.715,9.571,12.715v.714H70.683v-.714c5.861,0,9.571-3.284,9.571-12.715V51.84H27.685V88.41c0,9.432,3.711,12.715,9.571,12.715v.714H3.83v-.714c5.861,0,9.571-3.284,9.571-12.715V15.27C13.4,5.838,9.691,2.554,3.83,2.554V1.84H37.257v.714c-5.861,0-9.571,3.284-9.571,12.715Z" transform="translate(1081.17 861.16)" fill="url(#linear-gradient)"/>
          <path id="Path_11-61" data-name="Path 11" d="M145.584,43.837,173.01,80.267c12.428,16.426,20.711,20.858,25.283,20.858v.714c-20,0-28.287-.714-37.572-13.142L134.01,52.841,163.151,24.7c10-9.571,4.712-21.713-8.717-22.147V1.84h34.428v.714Z" transform="translate(1046.837 861.16)" fill="url(#linear-gradient)"/>
        </g>
        <g id="_1-62" data-name="1" transform="translate(1693.704 1877)">
          <path id="Path_10-62" data-name="Path 10" d="M80.255,50.125H27.685V15.27c0-9.432,3.711-12.715,9.571-12.715V1.84H3.83v.714c5.861,0,9.571,3.284,9.571,12.715V88.41c0,9.432-3.711,12.715-9.571,12.715v.714H37.257v-.714c-5.861,0-9.571-3.284-9.571-12.715V51.84h52.57V88.41c0,9.432-3.711,12.715-9.572,12.715v.714H104.11v-.714c-5.861,0-9.571-3.284-9.571-12.715V15.27c0-9.432,3.711-12.715,9.571-12.715V1.84H70.683v.714c5.861,0,9.571,3.284,9.571,12.715Z" transform="translate(56.021 -1.84)" fill="url(#linear-gradient-3)"/>
          <path id="Path_11-62" data-name="Path 11" d="M186.719,43.837,159.293,80.267c-12.428,16.426-20.711,20.858-25.283,20.858v.714c20,0,28.287-.714,37.572-13.142l26.712-35.856L169.152,24.7c-10-9.571-4.712-21.713,8.717-22.147V1.84H143.442v.714Z" transform="translate(-134.01 -1.84)" fill="url(#linear-gradient-3)"/>
        </g>
        <g id="_1-63" data-name="1" transform="translate(768.835 1014)">
          <path id="Path_10-63" data-name="Path 10" d="M27.685,50.125h52.57V15.27c0-9.432-3.711-12.715-9.571-12.715V1.84H104.11v.714c-5.861,0-9.571,3.284-9.571,12.715V88.41c0,9.432,3.711,12.715,9.571,12.715v.714H70.683v-.714c5.861,0,9.571-3.284,9.571-12.715V51.84H27.685V88.41c0,9.432,3.711,12.715,9.571,12.715v.714H3.83v-.714c5.861,0,9.571-3.284,9.571-12.715V15.27C13.4,5.838,9.691,2.554,3.83,2.554V1.84H37.257v.714c-5.861,0-9.571,3.284-9.571,12.715Z" transform="translate(1081.17 861.16)" fill="url(#linear-gradient)"/>
          <path id="Path_11-63" data-name="Path 11" d="M145.584,43.837,173.01,80.267c12.428,16.426,20.711,20.858,25.283,20.858v.714c-20,0-28.287-.714-37.572-13.142L134.01,52.841,163.151,24.7c10-9.571,4.712-21.713-8.717-22.147V1.84h34.428v.714Z" transform="translate(1046.837 861.16)" fill="url(#linear-gradient)"/>
        </g>
        <g id="_1-64" data-name="1" transform="translate(2013.966 1877)">
          <path id="Path_10-64" data-name="Path 10" d="M80.255,50.125H27.685V15.27c0-9.432,3.711-12.715,9.571-12.715V1.84H3.83v.714c5.861,0,9.571,3.284,9.571,12.715V88.41c0,9.432-3.711,12.715-9.571,12.715v.714H37.257v-.714c-5.861,0-9.571-3.284-9.571-12.715V51.84h52.57V88.41c0,9.432-3.711,12.715-9.572,12.715v.714H104.11v-.714c-5.861,0-9.571-3.284-9.571-12.715V15.27c0-9.432,3.711-12.715,9.571-12.715V1.84H70.683v.714c5.861,0,9.571,3.284,9.571,12.715Z" transform="translate(56.021 -1.84)" fill="url(#linear-gradient-3)"/>
          <path id="Path_11-64" data-name="Path 11" d="M186.719,43.837,159.293,80.267c-12.428,16.426-20.711,20.858-25.283,20.858v.714c20,0,28.287-.714,37.572-13.142l26.712-35.856L169.152,24.7c-10-9.571-4.712-21.713,8.717-22.147V1.84H143.442v.714Z" transform="translate(-134.01 -1.84)" fill="url(#linear-gradient-3)"/>
        </g>
      </g>
      <rect id="Gradient" width="1366" height="1020" transform="translate(0 1830)" fill="url(#linear-gradient-129)"/>
    </g>
  </g>
</svg>
