<svg xmlns="http://www.w3.org/2000/svg" width="20" height="20" viewBox="0 0 20 20">
  <g id="Insta" transform="translate(0 0)">
    <path id="Path_238" data-name="Path 238" d="M21.787,6.453A5.743,5.743,0,0,0,17.553,4.8H9.247A5.524,5.524,0,0,0,3.4,10.647v8.266a5.8,5.8,0,0,0,1.694,4.315A5.885,5.885,0,0,0,9.287,24.8h8.226a5.954,5.954,0,0,0,4.234-1.573A5.773,5.773,0,0,0,23.4,18.953V10.647A5.78,5.78,0,0,0,21.787,6.453Z" transform="translate(-3.4 -4.8)" fill="#b79923"/>
    <path id="Path_237" data-name="Path 237" d="M20.561,16.7a5.161,5.161,0,1,0,5.161,5.161A5.171,5.171,0,0,0,20.561,16.7Zm0,8.468a3.306,3.306,0,1,1,3.306-3.306A3.321,3.321,0,0,1,20.561,25.168Z" transform="translate(-10.561 -11.902)" fill="#fff"/>
    <circle id="Ellipse_26" data-name="Ellipse 26" cx="1.169" cy="1.169" r="1.169" transform="translate(14.194 3.508)" fill="#fff"/>
  </g>
</svg>
